<svg xmlns="http://www.w3.org/2000/svg" viewBox="0 0 800 500" width="800" height="500">
      <rect width="800" height="500" rx="12" fill="#1E1E2E"/>
      <rect x="0" y="0" width="800" height="44" fill="#2A2A3E" stroke="#3E3E5E" stroke-width="1"/>
      <circle cx="25" cy="22" r="5" fill="#EF4444"/><circle cx="42" cy="22" r="5" fill="#F59E0B"/><circle cx="59" cy="22" r="5" fill="#10B981"/>
      <text x="85" y="27" fill="#A6ADC8" font-family="monospace" font-size="12" font-weight="bold">UNDIAN STAGE APP // OPERATOR CONTROL PANEL (BROADCASTCHANNEL SYNC)</text>
      <g transform="translate(30, 65)">
        <rect x="0" y="0" width="740" height="400" rx="8" fill="#252538" stroke="#3E3E5E"/>
        <text x="25" y="35" fill="#F8FAFC" font-family="sans-serif" font-size="16" font-weight="bold">Karnaval Stage Live Control (0ms Broadcast Sync)</text>
        <rect x="25" y="65" width="330" height="150" rx="8" fill="#1E1E2E" stroke="#45475A"/>
        <text x="45" y="95" fill="#F38BA8" font-family="sans-serif" font-size="14" font-weight="bold">Grand Prize Category</text>
        <text x="45" y="125" fill="#FAB387" font-family="sans-serif" font-size="20" font-weight="bold">Yamaha Grand Filano</text>
        <text x="45" y="155" fill="#A6ADC8" font-family="sans-serif" font-size="12">Eligible Candidates: 12,480 Tickets</text>
        <text x="45" y="180" fill="#A6E3A1" font-family="sans-serif" font-size="12">Status: Synced with Projector Tab</text>
        <rect x="385" y="65" width="330" height="150" rx="8" fill="#1E1E2E" stroke="#45475A"/>
        <text x="405" y="95" fill="#89B4FA" font-family="sans-serif" font-size="14" font-weight="bold">Raffle Control Trigger</text>
        <rect x="405" y="115" width="290" height="45" rx="6" fill="#CBA6F7"/>
        <text x="480" y="143" fill="#11111B" font-family="sans-serif" font-size="14" font-weight="bold">PUTAR UNDIAN (START)</text>
        <rect x="405" y="170" width="290" height="35" rx="6" fill="#F38BA8"/>
        <text x="510" y="193" fill="#11111B" font-family="sans-serif" font-size="13" font-weight="bold">LOCK PEMENANG</text>
      </g>
    </svg>